<svg xmlns="http://www.w3.org/2000/svg" viewBox="0 0 1787.78 432"><defs><style>.cls-1{fill:#fa4616;}</style></defs><g id="Layer_2" data-name="Layer 2"><g id="Layer_1-2" data-name="Layer 1"><polygon points="432 400.35 314.93 283.28 432 283.29 432 238.5 238.5 238.5 238.5 432 283.28 432 283.28 314.93 400.35 432 432 432 432 400.35"/><polygon points="0 400.35 117.07 283.28 0 283.29 0 238.5 193.5 238.5 193.5 432 148.72 432 148.72 314.93 31.65 432 0 432 0 400.35"/><path class="cls-1" d="M387,148.5H45V45H387M432,0H0V193.5H432V0Z"/><polygon points="670.36 352.47 670.36 129.38 580.5 129.38 580.5 91.29 799.23 91.29 799.23 129.38 710.38 129.38 710.38 352.47 670.36 352.47"/><path d="M783.09,352.47V152.55h40v28.54l4.72-5.22a83.79,83.79,0,0,1,28-19.79c9.28-4.36,20.5-6.56,33.39-6.56h7.38v39.22h-8.93c-19.44,0-34.84,7.38-47.09,22.56-11.75,14.77-17.45,31.95-17.45,52.56v88.61Z"/><path d="M1007.43,355.5c-13.55,0-25.44-1.9-35.35-5.64a73.7,73.7,0,0,1-26.36-17.07C928.62,316.39,920,294.61,920,268V152.55h40V267.26c0,16.07,4.45,28.43,13.61,37.8s20.7,13.87,35.38,13.87c15,0,27.44-4.72,37.9-14.44s15.37-22.13,15.37-37.61V152.55h40V352.47h-40V332l-4.48,3.83a106.37,106.37,0,0,1-12.87,9.43C1034,352,1021.36,355.5,1007.43,355.5Z"/><path d="M1220.12,355.5c-27.06,0-49-6.76-65.2-20.1-15.2-12.07-23.46-28-24.58-47.41l-.33-5.74h41l.51,4.86c1.57,15.18,10.25,25.16,26.51,30.54a64.33,64.33,0,0,0,18.43,2.79,136.31,136.31,0,0,0,17.75-1.09,71.15,71.15,0,0,0,15.54-3.87c13.55-5.21,15.12-13.62,15.12-19.48s-2.25-10.26-7.07-13.42c-5.85-3.83-13.38-7-22.38-9.52-9.4-2.6-19.79-5-30.86-7.08a179.62,179.62,0,0,1-32.27-9.17A72.58,72.58,0,0,1,1146.44,240c-7.34-7.57-11-18-11-31,0-18.89,7.21-33.78,21.45-44.27,13.72-10.11,34-15.24,60.17-15.24,25,0,45.11,6,59.78,17.84,12.49,10.22,19.83,23.9,21.81,40.65l.72,6.07H1258.9l-.62-4.72c-3.27-24.78-33.48-24.78-43.41-24.78-35.37,0-39.47,12.44-39.47,21.8,0,5.67,2.21,9.67,6.94,12.58,5.87,3.61,13.42,6.65,22.44,9,9.44,2.49,19.84,4.81,30.93,6.92a169.82,169.82,0,0,1,32.33,9.38,72.13,72.13,0,0,1,25.83,17.39c7.29,7.82,11,18.48,11,31.69,0,20.22-8,35.92-23.76,46.65C1266,350.29,1245.48,355.5,1220.12,355.5Z"/><polygon points="1354.16 352.47 1354.16 188.37 1314.5 188.37 1314.5 152.55 1354.16 152.55 1354.16 84.86 1394.17 84.86 1394.17 152.55 1438.88 152.55 1438.88 188.37 1394.17 188.37 1394.17 352.47 1354.16 352.47"/><path d="M1546.57,355.5c-30.68,0-56-10.09-75.42-30-18.82-19.36-28.37-43.92-28.37-73,0-29.28,9.13-53.82,27.14-72.92,19.13-20,44.27-30.07,74.7-30.07s55.55,10.11,74.67,30c18,19.13,27.17,43.68,27.17,73v16.78h-162l.85,3.38a60.53,60.53,0,0,0,18,30.32c11.5,10.72,25.8,15.94,43.73,15.94,24.23,0,41.1-9.46,51.58-28.91l1.54-2.86h43.09l-2.92,7.42a97.31,97.31,0,0,1-33.94,44C1590.79,349.81,1570.69,355.5,1546.57,355.5Zm-2-169.4c-16.65,0-30.22,4.87-41.48,14.88a58.13,58.13,0,0,0-17.08,27.49l-1,3.48h119.17l-1-3.48A58.25,58.25,0,0,0,1586.07,201C1574.82,191,1561.27,186.1,1544.62,186.1Z"/><path d="M1674.29,352.47V152.55h40v28.54l4.73-5.22a83.69,83.69,0,0,1,28-19.79c9.27-4.36,20.5-6.56,33.39-6.56h7.37v39.22h-8.93c-19.44,0-34.84,7.38-47.08,22.56-11.75,14.77-17.46,31.95-17.46,52.56v88.61Z"/></g></g></svg>