<svg xmlns="http://www.w3.org/2000/svg" viewBox="0 0 1207.28 270.64"><g id="Layer_2" data-name="Layer 2"><g id="Layer_1-2" data-name="Layer 1"><polygon points="89.86 267.61 89.86 44.52 0 44.52 0 6.43 218.73 6.43 218.73 44.52 129.88 44.52 129.88 267.61 89.86 267.61"/><path d="M202.59,267.61V67.68h40V96.22L247.33,91a83.65,83.65,0,0,1,28-19.79c9.28-4.36,20.5-6.56,33.39-6.56h7.38v39.22h-8.93c-19.44,0-34.84,7.38-47.09,22.56-11.75,14.76-17.45,31.95-17.45,52.55v88.62Z"/><path d="M426.93,270.64c-13.55,0-25.44-1.9-35.35-5.65a73.54,73.54,0,0,1-26.36-17.06c-17.1-16.4-25.75-38.18-25.75-64.78V67.68h40V182.4c0,16.06,4.45,28.43,13.61,37.79s20.7,13.87,35.38,13.87c15,0,27.44-4.72,37.9-14.43S481.75,197.5,481.75,182V67.68h40V267.61h-40V247.1l-4.48,3.84a105.24,105.24,0,0,1-12.87,9.42C453.47,267.18,440.86,270.64,426.93,270.64Z"/><path d="M639.62,270.64c-27.06,0-49-6.76-65.2-20.1-15.2-12.07-23.46-28-24.58-47.41l-.33-5.75h41l.51,4.87c1.57,15.17,10.25,25.16,26.51,30.54a64.67,64.67,0,0,0,18.43,2.78,136.39,136.39,0,0,0,17.75-1.08,72.3,72.3,0,0,0,15.54-3.87c13.55-5.22,15.12-13.62,15.12-19.49s-2.25-10.25-7.07-13.42c-5.85-3.83-13.38-7-22.38-9.51-9.4-2.6-19.79-5-30.86-7.09a178.8,178.8,0,0,1-32.27-9.17,72.42,72.42,0,0,1-25.82-16.77c-7.34-7.57-11.05-18-11.05-31,0-18.88,7.21-33.77,21.45-44.26,13.72-10.11,34-15.24,60.17-15.24,25,0,45.11,6,59.78,17.84,12.49,10.22,19.83,23.9,21.81,40.65l.72,6.07H678.4l-.62-4.72c-3.27-24.78-33.48-24.78-43.41-24.78-35.37,0-39.47,12.44-39.47,21.8,0,5.67,2.21,9.66,6.94,12.57,5.87,3.62,13.42,6.65,22.44,9,9.44,2.48,19.84,4.81,30.93,6.91a170.55,170.55,0,0,1,32.33,9.38,72.28,72.28,0,0,1,25.83,17.4c7.29,7.82,11,18.48,11,31.69,0,20.22-8,35.92-23.76,46.65C685.5,265.42,665,270.64,639.62,270.64Z"/><polygon points="773.66 267.61 773.66 103.5 734 103.5 734 67.69 773.66 67.69 773.66 0 813.67 0 813.67 67.69 858.38 67.69 858.38 103.5 813.67 103.5 813.67 267.61 773.66 267.61"/><path d="M966.07,270.64c-30.68,0-56.05-10.1-75.42-30-18.82-19.36-28.37-43.91-28.37-73,0-29.28,9.13-53.82,27.14-72.92,19.13-20,44.27-30.07,74.7-30.07s55.55,10.1,74.67,30c18,19.12,27.17,43.68,27.17,73v16.77h-162l.85,3.38a60.44,60.44,0,0,0,18,30.32c11.5,10.73,25.8,15.94,43.73,15.94,24.23,0,41.1-9.45,51.58-28.9l1.54-2.86h43.09l-2.92,7.42a97.31,97.31,0,0,1-33.94,44C1010.29,265,990.19,270.64,966.07,270.64Zm-2-169.41c-16.65,0-30.22,4.87-41.48,14.89a58.08,58.08,0,0,0-17.08,27.49l-1,3.48h119.17l-1-3.48a58.2,58.2,0,0,0-17.11-27.52C994.32,106.09,980.77,101.23,964.12,101.23Z"/><path d="M1093.79,267.61V67.68h40V96.22l4.73-5.21a83.55,83.55,0,0,1,28-19.79c9.27-4.36,20.5-6.56,33.39-6.56h7.37v39.22h-8.93c-19.44,0-34.84,7.38-47.08,22.56-11.75,14.76-17.46,31.95-17.46,52.55v88.62Z"/></g></g></svg>